<?xml version="1.0" encoding="utf-8"?>
<!-- Generator: Adobe Illustrator 24.0.2, SVG Export Plug-In . SVG Version: 6.00 Build 0)  -->
<svg version="1.1" id="Layer_1" xmlns="http://www.w3.org/2000/svg" xmlns:xlink="http://www.w3.org/1999/xlink" x="0px" y="0px"
	 viewBox="0 0 70 70" style="enable-background:new 0 0 70 70;" xml:space="preserve">
<style type="text/css">
	.st0{fill:#005847;}
	.st1{fill:#CFCFCF;}
	.st2{fill:#FBF579;}
	.st3{fill:#6F6F6F;}
</style>
<g>
	<path class="st0" d="M20.52,36.56c-0.99,0.17-1.99,0.31-2.96,0.58c-0.86,0.25-1.7,0.21-2.55,0.02c-0.31-0.07-0.59-0.3-0.63-0.61
		c-0.03-0.28,0.21-0.5,0.47-0.65c1.43-0.82,2.93-1.47,4.51-1.92c0.11-0.03,0.22-0.06,0.32-0.1c0.06-0.03,0.22,0,0.16-0.15
		c-0.04-0.12-0.14-0.03-0.2-0.02c-0.6,0.14-1.18,0.3-1.79,0.37c-0.58,0.06-1.15,0.11-1.73,0.09c-0.15,0-0.29-0.01-0.43-0.09
		c-0.56-0.29-0.58-0.81-0.06-1.21c0.96-0.72,2.08-1.1,3.21-1.41c1.35-0.37,2.49-1.18,3.71-1.81c0.14-0.07,0.34-0.21,0.28-0.37
		c-0.08-0.21-0.29-0.31-0.56-0.28c-1.18,0.1-2.31,0.45-3.44,0.78c-1.22,0.36-2.43,0.71-3.64,1.08c-0.22,0.07-0.44,0.09-0.67,0.05
		c-0.54-0.08-1.06,0-1.58,0.15c-1.08,0.32-2.16,0.68-3.31,0.69c-0.51,0.01-1,0.19-1.47,0.39c-0.81,0.34-1.65,0.56-2.49,0.77
		c-0.54,0.14-0.82-0.08-0.86-0.64c-0.02-0.36,0.09-0.67,0.33-0.93c0.21-0.23,0.43-0.43,0.65-0.64c0.13-0.13,0.27-0.26,0.24-0.46
		c-0.04-0.3,0.14-0.47,0.36-0.6c0.33-0.2,0.66-0.39,1-0.58c0.15-0.08,0.19-0.14,0.05-0.3c-0.59-0.68-0.51-1.16,0.29-1.59
		c0.55-0.3,1.11-0.57,1.7-0.77c0.33-0.12,0.48-0.32,0.47-0.69c-0.01-0.73,0.28-1.05,0.97-1.28c1.71-0.57,3.47-0.83,5.26-0.99
		c0.58-0.05,1.15,0.1,1.73,0c0.93-0.15,1.82-0.47,2.75-0.6c0.22-0.03,0.45-0.07,0.67-0.12c0.24-0.05,0.38-0.2,0.35-0.46
		c-0.01-0.14-0.03-0.27-0.05-0.4c-0.05-0.31-0.23-0.44-0.55-0.41c-1.6,0.19-3.2,0.37-4.79,0.56c-0.37,0.04-0.74,0.06-1.12,0.05
		c-0.86-0.01-1.69,0.15-2.5,0.44c-1.45,0.52-2.96,0.73-4.49,0.85c-0.3,0.02-0.61,0.05-0.92,0.06c-0.79,0.01-1.15-0.42-1.02-1.2
		c0.04-0.24,0.11-0.48,0.17-0.77c-0.89,0.17-1.75,0.34-2.61,0.51c-0.39,0.08-0.78,0.17-1.17,0.23c-0.43,0.07-0.84,0.05-1.13-0.35
		c-0.3-0.42-0.2-0.83,0.01-1.25c0.12-0.23,0.29-0.4,0.48-0.56c0.89-0.73,1.94-1.14,2.99-1.57c1.32-0.54,2.67-0.99,4-1.48
		c0.25-0.09,0.43-0.22,0.54-0.47c0.15-0.35,0.42-0.61,0.75-0.75c0.64-0.28,1.29-0.52,2.02-0.46c0.88,0.07,1.72-0.15,2.45-0.65
		c1.06-0.71,2.24-1,3.48-1.15c0.06-0.01,0.11-0.01,0.17-0.01c0.61,0.01,0.98-0.23,1.2-0.86c0.29-0.83,1.04-1.21,1.86-1.44
		c0.44-0.12,0.87-0.23,1.31-0.34c0.2-0.05,0.47-0.16,0.43-0.35c-0.04-0.19-0.31-0.24-0.55-0.22c-0.96,0.08-1.92,0.14-2.88,0.22
		c-0.4,0.03-0.79-0.04-1.16-0.18c-0.33-0.12-0.52-0.36-0.55-0.71C18,9.24,18.16,8.99,18.45,8.82c0.86-0.5,1.79-0.86,2.67-1.34
		c0.06-0.03,0.11-0.06,0.18-0.1c-0.28-0.18-0.54-0.36-0.81-0.52c-0.8-0.5-0.54-1.62,0.25-1.92c1.58-0.6,3.13-1.3,4.82-1.61
		c0.78-0.14,1.52-0.26,2.32-0.14c1.2,0.18,2.4,0.01,3.59-0.17c1.3-0.2,2.59-0.18,3.88,0.01c0.29,0.04,0.47,0.22,0.6,0.45
		c0.2,0.35,0.49,0.49,0.9,0.48c0.77-0.02,1.54-0.01,2.31-0.02c0.63,0,1.06,0.27,1.24,0.89c0.08,0.29,0.27,0.38,0.56,0.39
		c1.78,0.05,3.56,0.09,5.33,0.21c0.86,0.06,1.71,0.21,2.56,0.36c0.31,0.05,0.47,0.3,0.53,0.56c0.06,0.23-0.17,0.35-0.33,0.46
		c-0.67,0.45-1.43,0.53-2.21,0.58c-2.82,0.17-5.63,0.33-8.44,0.57c-0.73,0.06-1.41,0.34-2.1,0.53c-0.06,0.02-0.11,0.04-0.11,0.1
		c0,0.09,0.07,0.09,0.14,0.11c0.26,0.08,0.52,0.03,0.78,0.02c1.51-0.02,3.02-0.03,4.52-0.05c2.08-0.02,4.15-0.05,6.23,0.02
		c0.52,0.02,1.04,0.04,1.56,0.07c0.68,0.04,0.91,0.25,1.08,0.91c0.13,0.51,0.13,0.49,0.63,0.46c1.32-0.09,2.64-0.26,3.97-0.25
		c1.44,0.01,2.87,0.13,4.31,0.27c0.79,0.08,1.58,0.15,2.37,0.24c0.57,0.07,0.91,0.35,1.03,0.84c0.11,0.42-0.05,0.77-0.46,0.94
		c-0.29,0.12-0.6,0.21-0.89,0.33c-0.56,0.22-0.96,0.58-1.01,1.23c-0.03,0.31-0.27,0.46-0.55,0.54c-0.6,0.17-1.21,0.31-1.82,0.42
		c-0.52,0.1-0.59,0.2-0.49,0.73c0.09,0.48-0.12,0.82-0.62,0.98c-1.22,0.4-2.48,0.63-3.75,0.79c-0.35,0.04-0.7,0.1-1.04,0.16
		c-0.46,0.08-0.81,0.32-1.05,0.73c-0.28,0.47-0.53,0.95-0.77,1.44c-0.22,0.46-0.11,0.64,0.41,0.66c0.91,0.03,1.81,0.04,2.72,0.08
		c1.34,0.06,2.67,0.2,3.99,0.39c0.58,0.08,0.73,0.23,0.72,0.82c0,0.38,0.14,0.47,0.49,0.48c1.18,0.03,2.35,0.1,3.53,0.13
		c0.38,0.01,0.74,0.11,1.08,0.27c0.46,0.22,0.59,0.55,0.36,1c-0.18,0.35-0.23,0.64,0.04,0.96c0.12,0.14,0.16,0.33,0.15,0.51
		c-0.02,0.39,0.2,0.49,0.52,0.51c0.67,0.05,1.33,0.09,2,0.15c0.48,0.04,0.97,0.07,1.43,0.27c0.31,0.13,0.53,0.33,0.5,0.69
		C68.23,26.82,68,27,67.7,27.1c-1.2,0.38-2.42,0.48-3.66,0.26c-0.56-0.1-1.07,0.03-1.5,0.38c-1.31,1.07-2.88,1.44-4.49,1.68
		c-1.12,0.17-2.24,0.05-3.36-0.09c-0.57-0.07-1.01,0.11-1.34,0.6c-0.35,0.52-0.73,1.01-1.1,1.51c-0.18,0.25-0.16,0.33,0.15,0.36
		c0.98,0.1,1.96,0.17,2.94,0.28c1.25,0.14,2.48,0.41,3.66,0.86c0.5,0.19,0.92,0.49,1.28,0.87c0.51,0.56,0.36,1.22-0.37,1.47
		c-0.73,0.25-1.5,0.35-2.27,0.37c-0.87,0.02-1.72-0.07-2.55-0.31c-0.46-0.13-0.92-0.09-1.38,0.02c-1.2,0.3-2.42,0.49-3.66,0.54
		c-0.4,0.02-0.68,0.21-0.81,0.61c-0.13,0.39-0.26,0.77-0.41,1.15c-0.08,0.21-0.04,0.28,0.18,0.28c0.54,0.01,1.09,0.03,1.63,0.05
		c2.38,0.08,4.69,0.51,6.87,1.46c0.99,0.43,1.98,0.81,3.01,1.12c0.4,0.12,0.55,0.41,0.65,0.75c0.07,0.26-0.18,0.54-0.51,0.61
		c-1.7,0.35-3.41,0.45-5.14,0.24c-1.22-0.15-2.44-0.17-3.67-0.11c-0.27,0.01-0.5,0.12-0.71,0.29c-0.79,0.66-1.7,0.9-2.72,0.76
		c-0.71-0.09-1.43-0.07-2.14-0.06c-0.29,0.01-0.55,0.12-0.75,0.35c-0.37,0.42-0.76,0.82-1.1,1.25c-0.71,0.88-1.6,1.57-2.4,2.35
		c-1.3,1.29-2.06,2.9-2.74,4.57c-0.46,1.12-0.57,2.3-0.61,3.49c-0.06,2.15-0.06,4.31,0,6.46c0.03,0.91,0.19,1.8,0.29,2.7
		c0.01,0.11-0.02,0.26,0.19,0.23c1.38-0.2,2.7,0.19,4.03,0.44c1.66,0.31,3.32,0.61,4.98,0.87c0.63,0.1,1.29,0.02,1.93,0.27
		c-0.3,0.38-0.69,0.57-1.16,0.59c-0.41,0.02-0.82,0.01-1.22-0.07c-0.83-0.16-1.65-0.04-2.47,0.08c-0.86,0.13-1.7,0.15-2.57,0.03
		c-1.05-0.15-2.1,0-3.16,0.03c-1.52,0.05-3.04,0.08-4.55,0.13c-1.03,0.03-2.05,0.23-3.07,0.35c-1.37,0.16-2.73,0.23-4.1,0.05
		c-1.23-0.16-2.47-0.08-3.7,0.04c-1.61,0.16-3.23,0.26-4.84,0.36c-0.38,0.02-0.74-0.06-1.11-0.12c-0.14-0.02-0.28-0.08-0.3-0.23
		c-0.02-0.16,0.05-0.3,0.2-0.4c0.39-0.23,0.82-0.31,1.26-0.38c1.05-0.17,2.1-0.33,3.16-0.48c0.17-0.03,0.34-0.06,0.48-0.14
		c1.07-0.64,2.26-0.83,3.46-1.04c1.08-0.19,2.14-0.1,3.22-0.01c0.12,0.01,0.25,0.02,0.37,0.01c0.73-0.03,0.95-0.2,1.17-0.9
		c0.17-0.53,0.36-1.05,0.58-1.56c0.07-0.17,0.06-0.25-0.15-0.25c-0.27,0-0.54-0.04-0.81-0.03c-0.36,0.01-0.47,0.14-0.43,0.49
		c0.03,0.28,0.12,0.55,0.16,0.83c0.05,0.34-0.06,0.46-0.4,0.47c-0.39,0.01-0.77-0.01-1.15-0.06c-0.36-0.04-0.55-0.23-0.63-0.57
		c-0.05-0.22-0.08-0.45-0.11-0.67c-0.05-0.32-0.24-0.5-0.57-0.53c-0.99-0.07-1.99-0.14-2.98-0.2c-0.01,0-0.02,0-0.03,0
		c-0.2-0.01-0.42,0.11-0.44,0.25c-0.02,0.17,0.19,0.28,0.37,0.31c0.33,0.05,0.65,0.03,0.98-0.01c0.79-0.1,1.53,0,2.21,0.51
		c-0.5,0.21-1.02,0.22-1.53,0.29c-0.45,0.06-0.9,0.11-1.35,0.17c-0.23,0.03-0.43,0.08-0.48,0.38c-0.04,0.21-0.24,0.28-0.45,0.27
		c-0.62-0.03-1.25-0.05-1.87-0.07c-1.24-0.04-2.46,0.2-3.69,0.3c-1.24,0.1-2.48,0.2-3.73,0.24c-0.72,0.02-1.42,0.13-2.13,0.24
		c-0.22,0.03-0.42,0.01-0.65-0.05c0.12-0.23,0.3-0.34,0.54-0.38c0.37-0.06,0.74-0.11,1.1-0.2c0.19-0.05,0.47-0.1,0.41-0.4
		c-0.05-0.27-0.29-0.32-0.53-0.3c-1.18,0.07-2.35,0.14-3.53,0.08c-0.05,0-0.09,0-0.14,0c-0.78-0.04-0.78-0.04-0.7,0.75
		c0,0.05,0,0.09,0.01,0.14c0.11,1.02,0.13,0.84-0.8,1.02c-0.34,0.07-0.69,0.11-1.04,0.13c-0.47,0.03-0.71-0.2-0.74-0.68
		c-0.01-0.15-0.03-0.29-0.05-0.44c-0.05-0.34-0.24-0.57-0.55-0.72c-0.35-0.16-0.4-0.43-0.08-0.63c0.55-0.35,0.56-0.83,0.42-1.37
		c-0.1-0.38-0.26-0.47-0.65-0.39c-0.18,0.03-0.36,0.07-0.54,0.09c-0.34,0.03-0.65-0.07-0.9-0.31c-0.12-0.11-0.31-0.24-0.25-0.41
		c0.07-0.2,0.24-0.34,0.48-0.38c0.37-0.06,0.75-0.03,1.12-0.04c0.38-0.01,0.46-0.09,0.45-0.46c-0.01-0.4,0.13-0.57,0.52-0.58
		c0.46-0.01,0.93,0,1.39,0.02c0.37,0.02,0.65,0.19,0.76,0.57c0.08,0.27,0.28,0.37,0.54,0.38c1.27,0.03,2.54,0.05,3.81,0.09
		c0.28,0.01,0.39-0.11,0.41-0.37c0.03-0.38,0.16-0.51,0.52-0.52c0.37-0.02,0.75-0.01,1.12,0c0.36,0.01,0.63,0.17,0.74,0.54
		c0.07,0.22,0.21,0.35,0.44,0.36c1.48,0.09,2.96,0.17,4.45,0.2c0.26,0.01,0.41-0.18,0.55-0.36c0.12-0.15,0.24-0.21,0.42-0.22
		c0.48-0.04,0.95,0.01,1.43,0.02c0.31,0.01,0.57,0.16,0.69,0.47c0.09,0.24,0.27,0.31,0.5,0.33c1.07,0.09,2.15,0.18,3.22,0.28
		c0.29,0.03,0.53-0.1,0.76-0.25c0.52-0.34,1.06-0.25,1.61-0.13c0.21,0.05,0.33,0.24,0.37,0.45c0.06,0.28,0.23,0.37,0.49,0.34
		c0.35-0.04,0.7-0.01,1.05,0c0.34,0.01,0.51-0.15,0.52-0.49c0.01-3.68-0.42-7.3-1.67-10.79c-0.57-1.59-1.43-3.05-2.19-4.55
		c-0.99-1.95-1.9-3.93-2.5-6.04c-0.14-0.48-0.3-0.56-0.81-0.42c-1.9,0.51-3.79,1.08-5.71,1.49c-1.19,0.25-2.39,0.45-3.6,0.17
		c-0.25-0.06-0.47-0.15-0.68-0.3c-0.47-0.36-0.47-0.85,0.03-1.17c0.4-0.25,0.82-0.47,1.25-0.69c1.41-0.72,2.8-1.47,4.29-2.01
		c0.04-0.05,0.1-0.08,0.16-0.09c-0.02-0.01-0.03,0.01-0.05,0.01C20.69,36.56,20.6,36.51,20.52,36.56z"/>
	<path class="st0" d="M40.74,61.48c0.14,0.02,0.36,0.03,0.57,0.07c0.27,0.04,0.46,0.2,0.49,0.49c0.02,0.21,0.11,0.26,0.3,0.27
		c0.45,0.02,0.9,0.05,1.36,0.08c0.37,0.02,0.72-0.06,1.04-0.26c0.23-0.15,0.49-0.22,0.77-0.23c0.8-0.04,1.31,0.63,1.07,1.39
		c-0.04,0.13-0.14,0.2-0.26,0.25c-0.34,0.17-0.7,0.21-1.05,0.08c-0.76-0.27-1.57-0.33-2.33-0.59c-0.49-0.17-0.96-0.01-1.41,0.2
		c-0.67,0.3-1.08,0.21-1.55-0.36c-0.02-0.03-0.05-0.05-0.06-0.08c-0.13-0.21-0.53-0.46-0.41-0.59c0.29-0.32,0.56-0.77,1.12-0.73
		C40.46,61.48,40.56,61.48,40.74,61.48z"/>
	<path class="st0" d="M49.63,63.78c-0.12-0.01-0.24-0.03-0.37-0.03c-0.22,0-0.47,0.05-0.5-0.28c-0.04-0.38,0.11-0.71,0.41-0.8
		c0.16-0.05,0.33-0.07,0.5-0.07c0.53,0.02,0.8,0.44,0.61,0.94C50.2,63.72,50.12,63.75,49.63,63.78z"/>
	<path class="st1" d="M20.52,36.56c0.08-0.07,0.18-0.06,0.28-0.07c0.07-0.02,0.08,0.01,0.07,0.07c-0.07,0.02-0.13,0.04-0.2,0.06
		C20.62,36.59,20.57,36.58,20.52,36.56z"/>
	<path class="st2" d="M32.51,29.18c-0.34,0.03-0.7,0.06-1.06,0.09c-0.47,0.03-0.68-0.11-0.84-0.56c-0.09-0.26-0.18-0.51-0.25-0.78
		c-0.09-0.36-0.02-0.48,0.34-0.56c0.87-0.19,1.75-0.36,2.63-0.54c0.21-0.04,0.39-0.11,0.55-0.25c0.4-0.36,0.88-0.52,1.42-0.56
		c0.59-0.05,1.17-0.12,1.76-0.18c0.27-0.03,0.51,0.03,0.72,0.21c0.49,0.43,1.11,0.54,1.71,0.7c1.02,0.26,1.04,0.32,0.62,1.27
		c-0.21,0.46-0.4,0.93-0.59,1.41c-0.14,0.34-0.38,0.5-0.75,0.54c-1.55,0.2-3.11,0.27-4.63,0.67c-0.2,0.05-0.24-0.02-0.19-0.2
		c0.03-0.13,0.06-0.27,0.06-0.4c0.03-0.49-0.27-0.83-0.76-0.85C33.01,29.17,32.77,29.18,32.51,29.18z"/>
	<path class="st2" d="M29.65,21.12c0-0.23-0.01-0.45,0-0.68c0.02-0.45,0.23-0.61,0.67-0.52c0.51,0.11,1.01,0.26,1.51,0.37
		c0.78,0.17,1.56,0,2.33-0.1c2.65-0.34,5.3-0.7,7.95-1.06c0.25-0.03,0.49-0.08,0.74-0.11c0.27-0.03,0.42,0.07,0.43,0.38
		c0.02,1.05-0.09,1.17-1.13,1.31c-1.53,0.2-3.05,0.42-4.58,0.63c-0.37,0.05-0.75,0.13-1.12,0.1c-1.74-0.14-3.38,0.44-5.08,0.59
		c-0.43,0.04-0.85,0.11-1.28,0.16c-0.3,0.04-0.46-0.08-0.45-0.4C29.67,21.57,29.66,21.34,29.65,21.12
		C29.66,21.12,29.66,21.12,29.65,21.12z"/>
	<path class="st2" d="M31.87,43.46c-0.01,0.83,0.1,1.79-0.03,2.75c-0.01,0.1,0.02,0.22-0.11,0.26c-0.13,0.03-0.16-0.11-0.22-0.18
		c-0.77-0.94-1.29-2.01-1.75-3.13c-0.58-1.4-1.11-2.82-1.53-4.27c-0.12-0.42-0.06-0.59,0.34-0.75c0.75-0.31,1.51-0.61,2.27-0.91
		c0.48-0.19,0.63-0.09,0.68,0.43C31.68,39.55,31.78,41.44,31.87,43.46z"/>
	<path class="st2" d="M50.97,28.91c-0.56,0.82-1.09,1.62-1.64,2.41c-0.2,0.29-0.48,0.45-0.83,0.45c-0.38,0-0.77-0.04-1.15,0
		c-0.18,0.02-0.22-0.05-0.18-0.22c0.06-0.24,0.12-0.48,0.16-0.73c0.08-0.61-0.2-1.01-0.81-1.13c-0.19-0.04-0.38-0.05-0.57-0.09
		c-0.23-0.06-0.32-0.19-0.2-0.43c0.43-0.84,0.82-1.03,1.76-0.85c0.91,0.17,1.84,0.26,2.76,0.37C50.51,28.73,50.74,28.79,50.97,28.91
		z"/>
	<path class="st2" d="M27.12,21.59c0.02,1.19,0.02,0.98-0.96,1.17c-0.56,0.11-1.14,0.17-1.71,0.25c-0.3,0.04-0.47-0.07-0.53-0.38
		c-0.06-0.39-0.14-0.78-0.14-1.18c0-0.26,0.12-0.44,0.37-0.5c0.86-0.19,1.72-0.36,2.61-0.41c0.24-0.01,0.33,0.12,0.35,0.32
		C27.13,21.11,27.12,21.35,27.12,21.59z"/>
	<path class="st2" d="M46.09,36.16c-0.25,0.58-0.48,1.13-0.72,1.68c-0.06,0.15-0.19,0.21-0.35,0.23c-1.01,0.08-1.97-0.19-2.94-0.41
		c-0.14-0.03-0.11-0.11-0.06-0.2c0.17-0.36,0.34-0.71,0.5-1.07c0.08-0.17,0.21-0.22,0.38-0.22C43.94,36.16,44.98,36.16,46.09,36.16z
		"/>
	<path class="st2" d="M35.35,44.8c0-0.78-0.01-1.56,0-2.34c0-0.55,0.13-0.66,0.67-0.61c1.03,0.08,1.05,0.1,0.78,1.09
		c-0.33,1.25-0.68,2.51-1.01,3.76c-0.06,0.22-0.16,0.42-0.27,0.62c-0.03,0.06-0.05,0.15-0.13,0.13c-0.1-0.02-0.08-0.12-0.08-0.2
		c0-0.54,0-1.09,0-1.63c0-0.27,0-0.54,0-0.82C35.32,44.8,35.33,44.8,35.35,44.8z"/>
	<path class="st2" d="M34.82,37.5c0-0.32,0.14-0.5,0.46-0.54c0.88-0.09,1.74-0.27,2.63-0.32c0.16-0.01,0.18,0.05,0.17,0.19
		c-0.06,0.89-0.29,1.2-1.12,1.49c-0.44,0.15-0.87,0.32-1.31,0.46c-0.42,0.14-0.59,0.04-0.66-0.39C34.92,38.1,34.87,37.8,34.82,37.5z
		"/>
	<path class="st2" d="M18.61,61.49c0.71,0,1.42-0.01,2.14,0c0.38,0.01,0.59,0.21,0.7,0.58c0.03,0.11-0.02,0.14-0.08,0.18
		c-0.15,0.1-0.31,0.17-0.5,0.17c-1.47,0.03-2.94-0.13-4.41-0.06c-0.4,0.02-0.35-0.32-0.37-0.56c-0.02-0.26,0.11-0.39,0.39-0.39
		c0.71,0.01,1.43,0,2.14,0C18.61,61.44,18.61,61.47,18.61,61.49z"/>
	<path class="st2" d="M11.85,61.36c0.45,0.11,0.95,0.03,1.45,0.06c0.3,0.02,0.45,0.2,0.45,0.53c0,0.3-0.18,0.35-0.42,0.36
		c-1.34,0.05-2.67,0.13-4,0.23c-0.32,0.02-0.47-0.12-0.5-0.46c-0.03-0.35,0.08-0.5,0.41-0.53C10.09,61.48,10.95,61.42,11.85,61.36z"
		/>
	<path class="st2" d="M46.69,20.28c-0.69-0.01-0.7-0.03-0.62-0.66c0.1-0.8,0.53-1.21,1.39-1.31c0.19-0.02,0.46-0.16,0.57,0.01
		c0.11,0.17-0.04,0.41-0.13,0.6c-0.16,0.33-0.34,0.66-0.52,0.98C47.21,20.18,46.97,20.31,46.69,20.28z"/>
	<path class="st2" d="M27.19,29.35c-0.09-0.01-0.19,0.01-0.27-0.02c-0.34-0.16-0.69-0.21-1.06-0.18c-0.12,0.01-0.34,0.02-0.34-0.18
		c0.01-0.22-0.05-0.51,0.24-0.62c0.5-0.19,1.01-0.32,1.54-0.38c0.13-0.02,0.22,0.03,0.29,0.13c0.08,0.11,0.16,0.22,0.21,0.35
		C28.07,29.07,27.87,29.36,27.19,29.35z"/>
	<path class="st2" d="M21.66,63.48c-0.14,0.23-0.31,0.23-0.49,0.24c-1.24,0.08-2.48,0.16-3.72,0.24c-0.16,0.01-0.31,0.05-0.47,0.07
		c-0.17,0.02-0.31-0.01-0.4-0.18c-0.14-0.27-0.08-0.37,0.22-0.39c1.3-0.07,2.6-0.16,3.9-0.07C21,63.41,21.3,63.44,21.66,63.48z"/>
	<path class="st2" d="M42.73,29.62c-0.55-0.01-0.61-0.09-0.42-0.58c0.11-0.29,0.21-0.59,0.34-0.88c0.2-0.43,0.85-0.56,1.21-0.26
		c0.13,0.1,0.13,0.24,0.08,0.37c-0.15,0.39-0.32,0.77-0.58,1.1C43.19,29.57,42.97,29.66,42.73,29.62z"/>
	<path class="st2" d="M41.32,43.22c-0.02-0.33-0.06-0.66-0.03-1c0.03-0.29,0.2-0.45,0.48-0.47c0.33-0.02,0.66,0.03,0.9,0.1
		c-0.41,0.46-0.83,0.94-1.25,1.42C41.39,43.26,41.35,43.24,41.32,43.22z"/>
	<path class="st3" d="M20.87,36.55c-0.02-0.02-0.04-0.05-0.07-0.07c0.07-0.06,0.15-0.08,0.25-0.05
		C21.01,36.52,20.94,36.53,20.87,36.55z"/>
</g>
</svg>
