<?xml version="1.0" encoding="utf-8"?>
<!-- Generator: Adobe Illustrator 24.0.2, SVG Export Plug-In . SVG Version: 6.00 Build 0)  -->
<svg version="1.1" id="Layer_1" xmlns="http://www.w3.org/2000/svg" xmlns:xlink="http://www.w3.org/1999/xlink" x="0px" y="0px"
	 viewBox="0 0 1920 1080" style="enable-background:new 0 0 1920 1080;" xml:space="preserve">
<style type="text/css">
	.st0{fill:#CFCFCF;}
	.st1{fill:#FEFEFE;}
	.st2{fill:#FDFDFD;}
	.st3{fill:#FCFCFC;}
	.st4{fill:#6F6F6F;}
</style>
<g>
	<path d="M-2435.17,908.94c-236.53,40.13-474.96,73.1-705.76,139.22c-204.25,58.52-406.21,49.57-608.34,4.16
		c-73.63-16.54-140.59-70.65-149.16-144.65c-7.82-67.63,48.94-119.73,111.65-155.65c340.46-195.01,697.19-351.28,1075.43-457.24
		c25.91-7.26,52.74-13.18,76.67-24.82c15.37-7.48,52.32,0.14,39.11-35.79c-10.34-28.13-33.78-7.43-48.53-4.08
		c-141.95,32.19-282.11,72.52-427.58,87.99c-137.08,14.58-274.29,26.13-412.27,21.95c-34.86-1.06-70.08-3.52-102.35-20.36
		c-133.71-69.77-138.22-193.89-13.94-287.66c228.8-172.64,494.64-261.56,765.35-335.33c322.86-87.98,592.2-281.71,883.79-431.39
		c32.65-16.76,81.48-49.23,66.36-87c-19.92-49.78-68.3-72.96-132.69-67.32c-281.81,24.67-549.77,107.32-818.81,186.21
		c-289.64,84.93-579.16,170.32-868.42,256.55c-52.71,15.71-104.31,21.29-159.35,12.95c-127.67-19.35-252.83-0.88-375.47,35.6
		c-258.41,76.86-514.19,161.59-789.08,164.73c-121.65,1.39-238.3,45.55-350.14,92.96c-192.08,81.42-392.71,133.8-594.06,184.31
		c-129.01,32.36-196.56-19.53-205.1-152.12c-5.55-86.1,22.33-160.27,79.15-222.27c49.18-53.67,103.51-102.64,155.69-153.55
		c31.41-30.64,63.55-62.53,57.58-110.62c-8.88-71.53,34.14-111.36,85.68-143.35c77.77-48.27,157.78-93.06,238.02-137.17
		c36.5-20.06,44.87-34,12.75-70.75c-141.49-161.89-120.85-275.5,68.7-379.64c129.97-71.4,264.13-135.06,404.12-184.68
		c79.29-28.1,113.75-77.05,112.32-163.82c-2.85-173.06,66.35-250.43,230.33-305.47c406.94-136.58,827.48-197.27,1252.36-236.08
		c137.27-12.54,274.81,22.84,412.27,1.11c221.29-34.98,433.49-111.62,655.57-143.29c53.38-7.61,106.63-16.89,159.32-28.27
		c57.7-12.46,90.07-47.15,83.53-109.63c-3.37-32.2-6.75-64.48-12.07-96.39c-12.41-74.45-55.84-105.64-131.68-96.77
		c-380.83,44.51-761.91,86.99-1142.63,132.4c-88.89,10.6-177.3,13.55-266.62,12.22c-204.59-3.06-402.79,35.67-594.75,104.39
		c-346.18,123.92-705.99,174.21-1070.02,202.79c-72.65,5.7-145.44,12.52-218.21,13.13c-187.24,1.58-272.89-99.67-242.13-285.04
		c9.62-57.99,25.38-114.97,41.08-184.59c-211.41,41.44-416.71,81.67-622,121.94c-92.69,18.19-184.9,39.5-278.18,53.92
		c-101.92,15.75-200.23,12.47-269.63-83.43c-72.36-100-48.66-198.28,1.5-297.1c27.48-54.14,69.06-95.61,115.47-133.66
		c212.02-173.83,463.41-272.06,712.95-374.45c314.02-128.85,635.97-236.18,954.26-353.4c59.2-21.8,102.78-52.02,128.74-111.58
		c35.9-82.36,99.98-144.19,179.89-179.58c152.62-67.59,307.5-123.62,482.17-110.72c209.95,15.51,409.08-35.86,584.71-153.72
		c251.59-168.83,533.83-238.74,828.5-274.02c13.41-1.61,26.95-3.34,40.41-3.18c145.14,1.72,233.08-53.63,285.43-203.94
		c69.24-198.83,247.9-289.5,442.1-343.98c103.74-29.1,208.44-54.78,312.71-81.99c48.22-12.59,111.43-37.84,101.89-83.36
		c-9.62-45.9-75.02-58.01-130.69-53.54c-228.73,18.37-457.7,33.82-686.48,51.53c-96.17,7.45-188.01-9.27-277.21-43.46
		c-77.52-29.71-123.91-85.55-130.33-169.11c-6.23-81.06,31.67-138.99,101.26-179.26c205.46-118.87,427.23-205.1,635.36-318.58
		c13.31-7.26,26.56-14.6,43.12-23.71c-67.13-43.3-129.8-84.67-193.4-124.56c-191.24-119.95-129.15-387.09,60.52-458.53
		c377.6-142.23,745.51-309.96,1147.48-383.67c184.84-33.9,362.68-62.28,552.13-33.32c285.6,43.66,572.63,2.56,854.67-39.92
		c310.67-46.79,617.04-43.05,925.51,2.28c68.54,10.07,111.21,53.44,143.03,108.19c48.58,83.6,117.12,117.72,214.29,114.87
		c183.6-5.39,367.44-2.63,551.17-3.94c150.57-1.07,253.39,64.02,294.7,212.8c19.09,68.78,65.12,91.42,132.45,93.38
		c423.73,12.31,847.56,22.55,1270.69,50.48c205.17,13.55,407.15,49.44,609.08,85.44c73.32,13.07,110.95,70.93,126.81,133.71
		c13.75,54.42-39.92,84.08-78.93,110.22c-158.8,106.39-341.49,127.33-525.51,138.34c-671.03,40.13-1342.14,79.16-2012.08,135.06
		c-173.42,14.47-335.04,80.35-501.07,126.64c-14.23,3.97-26.03,8.91-26.18,25c-0.22,21.79,17.49,22.45,33.15,27.32
		c61.36,19.09,123.26,6.14,185.03,5.46c359.39-3.96,718.78-7.29,1078.17-10.94c494.52-5.03,989.06-10.98,1483.49,5.58
		c124.13,4.16,248.32,8.42,372.25,16.27c162.2,10.28,217.17,58.54,256.99,217.47c30.18,120.46,29.97,117.23,149.59,109.13
		c315.19-21.34,629.42-62.73,945.72-60.64c343.02,2.27,684.96,30.62,1026.36,63.45c188.12,18.09,376.35,35.54,564.06,57.29
		c136.59,15.83,215.8,84.09,244.95,200.38c25.34,101.1-12.76,182.58-109.82,223.5c-69.34,29.23-141.79,51-211.8,78.76
		c-134.21,53.22-227.93,138.11-241.18,294.12c-6.19,72.9-64.18,108.7-130.22,127.67c-142.6,40.96-287.22,73.18-433.13,100.17
		c-125.03,23.13-140.25,47.73-116.01,174.84c21.6,113.3-28.5,195.07-147.19,233.65c-290.9,94.57-589.96,151.05-892.98,188.9
		c-83.03,10.37-165.88,22.78-248.3,37.23c-109.75,19.25-192.71,77.17-250.43,174.19c-66.26,111.37-126.23,225.88-182.74,342.3
		c-52.89,108.97-25.49,153.57,96.88,157.43c215.95,6.81,432.09,9.51,647.86,19.85c318.42,15.26,635.36,48.76,950.92,93.64
		c139.08,19.78,172.94,54.15,171.18,196.49c-1.12,90.51,33.01,112.87,116.2,115c280.66,7.18,561.09,22.89,841.73,31
		c91.67,2.65,175.53,26.23,256.19,65.23c110.14,53.25,141.68,130.06,85.56,237.57c-43.15,82.64-54.26,153.2,10.24,229.14
		c27.92,32.88,38.53,79.44,35.84,122.41c-5.75,92.17,48.2,116.7,124.52,122.3c158.89,11.65,317.89,22.14,476.57,36.22
		c115.22,10.22,231.32,16.73,340.02,64.64c72.69,32.04,127.42,77.93,118.58,163.3c-8.08,78.03-62.89,120.81-135.08,143.89
		c-285.56,91.29-575.62,114.43-871.42,60.98c-132.37-23.92-254.74,6.59-357.59,90.74c-311.62,254.94-685.19,342.5-1069.18,399.83
		c-266.94,39.86-533.93,10.77-799.77-20.28c-136.78-15.97-240.28,26.28-318.71,143.37c-82.58,123.29-175.1,239.91-262.68,359.88
		c-43.5,59.59-37.16,78.44,36.48,85.78c233.63,23.28,468,39.6,701.29,65.69c298.44,33.38,590.29,98.15,872.09,204.41
		c118.61,44.73,219.45,115.66,304.77,208.02c122.65,132.76,84.91,290.92-87.28,349.68c-174.7,59.62-356.73,83.69-541.15,88.79
		c-206.56,5.7-409.73-17.21-608.62-73.92c-110.26-31.44-220.18-21.57-328.29,5.76c-286.16,72.34-576,116.82-871.09,128.03
		c-95.93,3.64-161.63,50.68-192.51,144.65c-30.25,92.06-60.87,184.18-96.63,274.16c-19.86,49.98-10.09,66.38,43.39,67.16
		c129.54,1.88,259.05,6.67,388.55,11.23c566.06,19.94,1117.41,120.37,1636.55,348.74c235.18,103.46,472.87,194.16,717.6,267.97
		c94.84,28.6,131.52,98.37,154.46,179.71c17.61,62.46-41.85,129.62-120.64,145.71c-404.98,82.73-811.93,108.33-1224.13,58.17
		c-289.74-35.26-581.69-41.03-873.59-26.49c-64.49,3.21-120.2,29.5-168.97,70.1c-189.43,157.72-404.51,213.87-649.35,181.98
		c-168.64-21.96-339.84-17.82-510.06-13.71c-70.16,1.7-130.32,29.24-177.8,83.39c-87.24,99.52-180.01,194.51-262.7,297.63
		c-168.51,210.12-382.2,373.06-571.66,561.01c-308.91,306.44-490.23,692.1-651.83,1089.18
		c-109.03,267.92-136.99,547.71-144.71,832.23c-13.91,513.37-14.51,1026.78,0.95,1540.07c6.51,216.08,44.4,429.46,69.85,643.86
		c3.07,25.9-3.74,61.96,46.37,54.83c328.88-46.82,642.4,44.62,960.13,104.99c394.86,75.02,790.85,144.77,1187.7,208.4
		c150.77,24.17,307.96,4.89,460,65.49c-70.96,90.82-163.27,136.8-275.67,141.58c-97.24,4.14-194.58,1.48-290.75-16.61
		c-197.58-37.17-393.38-9.47-588.26,20.13c-204.13,31.01-405.87,35.59-611.83,6.23c-249.69-35.58-501.54-0.79-752.45,6.82
		c-361.71,10.97-723.49,19.82-1085.23,30.12c-246.33,7.01-487.96,55.74-731.86,84.27c-325.34,38.06-649.95,54.62-976.93,11.57
		c-293.42-38.62-588.05-18.87-881.46,9.96c-384.19,37.75-769.37,61.48-1154.51,85.94c-89.85,5.71-177.31-14.3-265.01-29.53
		c-33.08-5.74-66.69-19.35-72.11-55.48c-5.85-39.02,10.83-72.04,47.83-94.41c92.48-55.91,196.04-74.3,299.89-90.68
		c250.53-39.54,501.29-77.72,752.13-115.2c40.51-6.05,80.72-13.27,115.48-34.12c253.8-152.17,538.06-197.06,823.41-246.69
		c257.09-44.72,511.03-24.79,766.6-2.66c29.54,2.56,59.41,4.74,88.95,3.36c173.09-8.04,227.24-47.51,279.57-214.54
		c39.55-126.21,85.5-249.79,137.49-371.14c17.59-41.05,13.73-58.75-35.33-59.13c-64.7-0.51-129.48-9.81-194.02-8
		c-85,2.39-112.69,33.64-102.93,117.72c7.74,66.67,28.21,131.79,37.82,198.34c11.68,80.86-14.07,109.82-95.73,112.37
		c-91.95,2.88-183.43-3.51-275-13.98c-84.68-9.68-132-55.9-149.32-135.35c-11.48-52.68-17.98-106.45-26.77-159.72
		c-12.68-76.8-56.75-120.19-135.34-125.64c-236.89-16.42-473.81-32.53-710.72-48.74c-2.69-0.19-5.41-0.08-8.11-0.18
		c-48.19-1.83-99.34,25.14-104.42,59.94c-5.92,40.55,46.2,67.1,89.31,74.14c77.74,12.69,155.95,7.22,233.99-2.86
		c188.14-24.31,365.74-0.21,527.19,120.69c-119.03,50.81-243.35,51.98-364.22,69.26c-106.86,15.28-214.43,25.51-321.38,40.18
		c-54.49,7.47-102.83,19.15-114.93,90.77c-8.62,51.03-56.93,66.55-108.04,64.49c-148.39-5.98-296.81-11.34-445.24-16.36
		c-295.79-10.01-586.45,46.54-879.54,70.82c-296.1,24.53-592.15,47.52-888.97,57.81c-170.72,5.92-338.77,30.43-506.72,56.75
		c-52.43,8.22-100.18,2.93-153.72-13.04c28.35-55.83,71.01-81.65,127.57-91c87.73-14.5,176.07-27.33,262.17-48.82
		c46.46-11.6,111.44-23.96,97.68-94.5c-12.66-64.94-69.55-76.15-127.36-72.67c-280.47,16.88-560.95,32.31-842.09,18.42
		c-10.79-0.53-21.65,0.34-32.44-0.26c-185.35-10.33-185.34-10.36-166.4,178.75c1.08,10.76,1.19,21.61,2.37,32.35
		c26.82,243.64,31.16,199.45-190.42,243.31c-81.9,16.21-165.6,25.86-248.95,31.5c-112.82,7.63-169.65-47.93-176.23-161.19
		c-2.03-34.88-6.4-69.73-11.7-104.28c-12.45-81.02-57.29-136.49-131.79-171.55c-82.81-38.97-94.5-102.73-20.01-150.51
		c130.32-83.6,132.67-198.92,99.19-327.08c-23.5-89.94-63.03-111.68-155.5-94.01c-42.42,8.11-84.84,17.75-127.71,21.57
		c-81.94,7.29-156.05-15.82-215.01-74.02c-27.46-27.11-73.45-56.33-59.28-97.31c16.44-47.53,56.99-81.91,114.31-91.44
		c88.94-14.79,178.04-6.98,267.05-9.1c90.27-2.15,110.67-22.36,107.41-109.92c-3.56-95.55,30.87-136.83,123.94-138.23
		c110.75-1.65,221.68-0.87,332.32,3.92c88.36,3.83,154.77,44.19,180.83,134.86c18.57,64.62,66.11,88.69,128.21,90.1
		c302.47,6.85,604.99,11.91,907.4,20.48c66.21,1.88,92.56-25.1,97.11-88.34c6.44-89.65,37.16-121.29,124.25-124.99
		c88.99-3.78,178.29-3.3,267.37-0.99c86.39,2.24,149.8,40.9,175.3,128.06c15.54,53.12,50.68,82.63,104.82,86.01
		c352.94,22.03,706.08,39.98,1059.67,47.2c61.32,1.25,98.75-43.2,130.85-85.02c27.61-35.97,56.49-49.18,100.7-52.49
		c113.74-8.51,226.85,2.28,340.07,5.33c74.76,2.01,136.31,39.13,164.63,111.48c22.44,57.31,64.71,74.58,119.02,79.25
		c255.6,22.01,511.26,43.34,766.71,66.93c70.02,6.47,126.82-23.21,180.84-58.49c122.92-80.29,253.77-59.48,383.51-31.15
		c50.15,10.95,78.65,57.15,89.29,106.94c14.18,66.33,55.21,88.37,117.69,81.81c83.52-8.77,166.94-1.99,250.47-0.4
		c81.48,1.56,122.52-36.06,122.84-116.25c3.44-877.92-101.08-1740.01-398.1-2570.69c-135.51-379-340.68-726.3-522.57-1083.96
		c-235.98-464.03-452.09-936.16-595.4-1438.7c-32.91-115.39-70.52-133.02-193.5-99.87c-452.74,122.04-901.98,257.44-1361.22,354.57
		c-284.02,60.07-568.56,106.82-858.4,40.06c-58.38-13.45-113.04-35.74-161.05-72.41c-111.6-85.24-111.12-202.51,8.06-278.14
		c95.29-60.47,196.51-112.06,297.1-163.67c335.45-172.13,668.26-350.08,1023.46-480.17c9.71-13.05,24.15-18,37.83-22.36
		c-4.9-1.71-7.68,2.38-11.71,2.34C-2394.79,909.3-2416.2,896.96-2435.17,908.94z"/>
	<path d="M2381.18,6847.54c34.41,3.87,85.58,7.58,136,15.8c65.21,10.64,110.19,47.22,115.61,115.9
		c3.87,48.99,26.69,61.76,72.39,63.37c107.79,3.79,215.39,12.91,323.07,19.85c88.72,5.72,170.56-13.17,246.67-61.33
		c55.34-35.01,117.85-51.8,183.76-55.09c189.81-9.49,312.41,151.11,253.91,332.41c-10.11,31.35-34.27,47.09-61.01,60.76
		c-80.9,41.36-166.48,49.91-250.92,19.52c-180.66-65-373.8-78.44-555.29-141.22c-116.17-40.19-228.75-1.47-336.38,47.14
		c-160.3,72.4-258.4,49.79-370.24-85.33c-5.17-6.24-11.2-11.93-15.47-18.73c-31.8-50.55-125.57-108.88-98.05-139.43
		c69.39-77.01,134.07-184.42,266.29-173.9C2315.68,6849.19,2340.1,6847.54,2381.18,6847.54z"/>
	<path d="M4500.14,7396.1c-29.1-2.86-58.2-8.19-87.29-8.06c-53.6,0.24-110.87,12.86-120.17-67.48
		c-10.55-91.05,25.67-170.01,97.48-191.8c37.97-11.52,79.46-17.77,119.04-16.47c125.84,4.14,189.68,105.39,145.17,224.82
		C4637.55,7382.27,4616.85,7389.73,4500.14,7396.1z"/>
	<path class="st0" d="M-2435.17,908.94c19.22-17.72,43.7-14.19,66.73-16.49c16.56-5.59,20.04,1.5,15.68,16.18
		c-16.07,4.73-32.13,9.47-48.2,14.2C-2412.36,918.2-2423.76,913.57-2435.17,908.94z"/>
	<path class="st1" d="M421.84-849.08c-80.77,6.8-166.7,15.05-252.78,21.05C56.17-820.17,6.64-853.48-30.78-961.97
		c-21.08-61.12-42.67-122.32-58.9-184.81c-21.99-84.7-5.72-114.94,80.82-133.74c208.04-45.2,416.98-86.3,625.84-127.61
		c48.92-9.68,93.05-26.9,130.06-60.29c96.22-86.78,210.68-124.49,338.36-134.38c139.85-10.82,279.25-27.45,418.76-42.44
		c64.65-6.95,120.63,6.02,171.58,50.74c116.04,101.86,263.98,129.69,407.38,166.05c241.93,61.35,248.61,75.32,148.37,302.49
		c-48.88,110.77-95.23,222.72-140.07,335.2c-32.66,81.94-91.35,118.07-178.03,129.01c-368.86,46.54-741.97,64.62-1103.81,159.38
		c-47.72,12.5-56.02-5-45.83-47.39c7.53-31.33,13.4-63.6,15.08-95.7c6.11-116.75-65.47-197.22-181.54-203.12
		C540.73-851.46,483.9-849.08,421.84-849.08z"/>
	<path class="st1" d="M-259.77-2770.36c0-54.06-2.33-108.24,0.49-162.15c5.62-107.4,54.1-146.16,159.34-122.89
		c120.93,26.74,240.08,61.5,361,88.28c186.74,41.36,371.89-0.29,555.65-23.64c631.97-80.3,1263.07-167.47,1894.47-252.24
		c58.82-7.9,117.23-19.23,176.2-25.42c64.41-6.77,101.19,17.83,102.89,89.87c5.9,250.84-21.23,279.5-269.44,311.75
		c-363.94,47.29-727.06,100.94-1090.76,150.15c-88.24,11.94-178.42,30.09-265.95,23.16c-413.58-32.72-806.25,103.68-1210.8,141.54
		c-102.1,9.55-203.61,25.31-305.44,37.87c-70.72,8.72-108.58-18.89-106.1-94.23c1.78-53.97,0.35-108.04,0.35-162.07
		C-258.51-2770.37-259.14-2770.36-259.77-2770.36z"/>
	<path class="st1" d="M269.32,2554.85c-1.9,197.24,24.05,426.61-7.26,655.44c-3.13,22.9,3.74,53.52-26.76,61.32
		c-31.31,8-37.89-25.09-51.99-42.22c-183.67-223.11-307.39-479.78-416.59-744.8c-137.55-333.8-265.53-670.91-365.21-1018.29
		c-28.89-100.68-14.15-139.75,80.08-178.34c179.39-73.47,359.14-146.1,539.77-216.47c115.35-44.93,151.11-22.49,161.95,102.5
		C222.22,1622.96,246.71,2072.88,269.32,2554.85z"/>
	<path class="st1" d="M4819.72-913.35c-132.29,195.04-260.03,385.02-389.72,573.67c-47.11,68.53-114.3,106.83-198.69,106.41
		c-91.6-0.46-183.23-9.7-274.76,0.71c-41.72,4.75-52.15-12.78-42.63-51.5c14.13-57.46,29.44-115.04,37.5-173.5
		c20.07-145.72-48.52-240.18-192.21-268.64c-44.92-8.9-91.34-10.88-135.77-21.49c-55.1-13.16-76-44.55-46.51-101.35
		c103.52-199.36,195.28-246.25,419.41-203.34c217.5,41.64,437.81,61.17,657.05,89.1C4710.08-956.06,4764.13-941.68,4819.72-913.35z"
		/>
	<path class="st1" d="M-863.07-2657.89c3.87,284.59,5.34,232.63-228.02,279.96c-134.43,27.26-271.69,40.47-407.61,60.45
		c-71.26,10.47-113.17-16.23-125.37-90.04c-15.39-93.12-33.08-185.62-32.21-280.74c0.57-62.71,28.18-105.26,88.12-118.82
		c204.91-46.36,411.02-85.94,621.54-97.63c56.72-3.15,79.32,29.39,82.63,77.14C-860.08-2771.26-863.07-2714.47-863.07-2657.89z"/>
	<path class="st1" d="M3656.44,813.64c-59.74,139.25-115.48,269.54-171.58,399.68c-15.46,35.87-44.92,51.19-82.58,54.29
		c-240.85,19.82-469.63-45.55-700.2-98.61c-33.38-7.68-25.71-26.4-15.35-48.14c40.41-84.79,80.9-169.57,119.9-255.01
		c18.33-40.15,49.37-52.56,90.74-52.47C3145.27,813.91,3393.17,813.64,3656.44,813.64z"/>
	<path class="st1" d="M1096.67,2873.72c0-186.17-1.2-372.34,0.41-558.5c1.13-131.49,30.1-156.21,160.72-146.26
		c245.45,18.71,249.56,23.61,186.78,259.31c-79.66,299.05-161.33,597.57-240.39,896.78c-14.02,53.04-37.95,100.32-64.13,147.41
		c-7.7,13.85-11.5,34.99-31.08,31.1c-24.09-4.78-20.17-28.2-20.2-46.61c-0.17-129.61-0.1-259.23-0.1-388.84
		c0-64.81,0-129.61,0-194.42C1091.34,2873.71,1094.01,2873.72,1096.67,2873.72z"/>
	<path class="st1" d="M971.35,1133.62c-0.53-75.48,34.41-119.87,108.76-127.73c208.94-22.1,415.35-64.82,625.77-75.29
		c38.9-1.94,43.26,11.32,40.92,46.09c-14.36,212.98-68.82,285.83-267.95,354.62c-104.22,36-207.38,75.09-311.83,110.38
		c-100.04,33.81-140.58,8.79-158.32-93.17C996.23,1276.89,983.79,1205.25,971.35,1133.62z"/>
	<path class="st1" d="M-2891.28,6851.59c169.76,0,339.55-1.86,509.28,0.76c89.66,1.38,140.37,49.67,167.49,137.08
		c8.33,26.86-4.02,33.15-19.71,43.62c-36.47,24.32-74.68,39.91-120.26,40.91c-350.26,7.73-699.78-31.18-1050.24-15.14
		c-94.78,4.34-83.25-75.15-88.71-133.52c-5.9-63.02,27.17-93.5,92.01-93.04c170.05,1.23,340.11,0.41,510.16,0.41
		C-2891.28,6838.98-2891.28,6845.28-2891.28,6851.59z"/>
	<path class="st1" d="M-4502.91,6819.6c107.7,26.14,226.84,6.79,344.92,13.65c72.37,4.2,106.39,48.21,106.97,125.12
		c0.53,70.79-42.92,84.22-100.57,86.37c-318.28,11.84-636.14,30.81-953.75,54.77c-77.37,5.84-112.36-29.65-118.8-109.78
		c-6.78-84.31,18.32-120.01,97.74-126.19C-4921.87,6847.63-4717.14,6834.5-4502.91,6819.6z"/>
	<path class="st2" d="M3799.45-2969.03c-163.29-2.49-166.97-6.62-148.52-158.28c23.21-190.82,125.22-288.19,330.51-311.44
		c46.05-5.22,109.46-37.34,135.06,2.63c25.24,39.41-9.24,98.54-31.59,144.06c-39.03,79.49-82.03,157.08-124.99,234.57
		C3923.7-2992.16,3866.8-2963.12,3799.45-2969.03z"/>
	<path class="st2" d="M-847.52-808.97c-21.49-1.6-45.91,3.02-63.97-5.62c-80.51-38.54-163.35-50.92-252.31-43.79
		c-28.29,2.27-81.36,5.38-79.91-43.07c1.58-52.79-11.61-121.13,56.39-147.01c118.5-45.1,241.4-75.08,367.63-90.42
		c30.15-3.67,53.53,7.99,69.98,31.01c18.68,26.14,37.92,53.04,50.13,82.42C-637.06-875.04-685.52-805.13-847.52-808.97z"/>
	<path class="st3" d="M-2164.94,7324.06c-32.45,53.95-73.97,55.42-117,58.08c-295.72,18.24-591.4,37.25-887.03,56.94
		c-37.44,2.49-74.45,11.01-111.79,15.6c-40.02,4.93-74.21-2.46-95.59-42.65c-34.06-64.03-19.62-89.21,52.82-92.92
		c309.47-15.84,618.83-37.78,928.89-15.95C-2322.14,7308.26-2249.84,7316.25-2164.94,7324.06z"/>
	<path class="st2" d="M2855.7-743.59c-132.18-2.87-144.53-20.85-100.68-139.03c26.07-70.25,49.93-141.6,80.89-209.68
		c46.69-102.65,202.07-134.23,288.54-62.71c30.17,24.95,31.05,57.28,19.32,87.98c-35.44,92.73-76.92,182.95-138.62,261.77
		C2965.6-754.69,2912.88-733.13,2855.7-743.59z"/>
	<path class="st3" d="M2520.32,2497.35c-5.77-78.84-15.07-157.3-6.07-237.15c7.86-69.77,46.99-108.42,114.35-112.38
		c79.74-4.68,158.26,8.31,215.2,24.73c-96.83,110.04-197.56,224.52-298.29,339.01C2537.11,2506.82,2528.71,2502.09,2520.32,2497.35z
		"/>
	<path class="st4" d="M-2352.76,908.63c-5.23-5.39-10.45-10.79-15.68-16.18c17.03-14.94,35.96-18.89,58.85-11.25
		C-2318.67,901.6-2337.08,902.93-2352.76,908.63z"/>
</g>
</svg>
