<?xml version="1.0" encoding="utf-8"?>
<!-- Generator: Adobe Illustrator 24.0.2, SVG Export Plug-In . SVG Version: 6.00 Build 0)  -->
<svg version="1.1" xmlns="http://www.w3.org/2000/svg" xmlns:xlink="http://www.w3.org/1999/xlink" x="0px" y="0px"
	 viewBox="0 0 60 60" style="enable-background:new 0 0 60 60;" xml:space="preserve">
<style type="text/css">
	.st0{fill:#005847;}
	.st1{fill:#FBF579;}
	.st2{fill:#CFCFCF;}
	.st3{fill:#6F6F6F;}
</style>
<g id="Layer_2">
	<rect class="st0" width="60" height="60"/>
</g>
<g id="Layer_1">
	<g>
		<path class="st1" d="M18,30.98c-0.82,0.14-1.66,0.25-2.46,0.49c-0.71,0.2-1.42,0.17-2.12,0.01c-0.26-0.06-0.49-0.25-0.52-0.5
			c-0.03-0.24,0.17-0.42,0.39-0.54c1.19-0.68,2.43-1.22,3.75-1.59c0.09-0.03,0.18-0.05,0.27-0.09c0.05-0.03,0.18,0,0.14-0.12
			c-0.04-0.1-0.12-0.03-0.17-0.01c-0.49,0.11-0.98,0.25-1.49,0.31c-0.48,0.05-0.96,0.09-1.44,0.08c-0.12,0-0.24-0.01-0.36-0.07
			c-0.47-0.24-0.48-0.68-0.05-1c0.8-0.6,1.72-0.91,2.67-1.17c1.13-0.31,2.06-0.98,3.08-1.5c0.11-0.06,0.28-0.17,0.23-0.3
			c-0.07-0.17-0.24-0.25-0.46-0.23c-0.98,0.09-1.92,0.37-2.86,0.65c-1.01,0.3-2.02,0.59-3.03,0.89c-0.18,0.05-0.36,0.07-0.56,0.05
			c-0.45-0.07-0.88,0-1.31,0.12c-0.9,0.27-1.79,0.56-2.75,0.57c-0.42,0-0.83,0.16-1.22,0.32c-0.67,0.28-1.37,0.47-2.07,0.64
			c-0.45,0.11-0.69-0.07-0.72-0.53c-0.02-0.3,0.08-0.56,0.28-0.78c0.17-0.19,0.36-0.36,0.54-0.54c0.11-0.11,0.22-0.22,0.2-0.39
			c-0.03-0.25,0.12-0.39,0.3-0.5c0.27-0.17,0.55-0.32,0.83-0.48c0.13-0.07,0.16-0.12,0.04-0.25c-0.49-0.56-0.42-0.96,0.24-1.32
			c0.45-0.25,0.92-0.47,1.41-0.64c0.28-0.1,0.4-0.27,0.39-0.57c-0.01-0.6,0.23-0.87,0.8-1.07c1.42-0.48,2.89-0.69,4.37-0.82
			c0.48-0.04,0.96,0.08,1.44,0c0.77-0.12,1.51-0.39,2.29-0.5c0.19-0.03,0.37-0.06,0.56-0.1c0.2-0.04,0.31-0.16,0.29-0.38
			c-0.01-0.11-0.02-0.22-0.04-0.34c-0.04-0.26-0.19-0.37-0.46-0.34c-1.33,0.16-2.66,0.3-3.98,0.46c-0.31,0.04-0.62,0.05-0.93,0.04
			c-0.71-0.01-1.4,0.12-2.07,0.36c-1.21,0.43-2.46,0.61-3.73,0.71c-0.25,0.02-0.51,0.04-0.76,0.05C6.3,20.07,6,19.71,6.11,19.07
			c0.03-0.2,0.09-0.4,0.14-0.64c-0.74,0.14-1.45,0.28-2.17,0.43C3.76,18.92,3.44,19,3.11,19.05c-0.36,0.05-0.7,0.04-0.94-0.29
			C1.92,18.41,2,18.07,2.18,17.72c0.1-0.19,0.24-0.33,0.4-0.47c0.74-0.61,1.62-0.95,2.49-1.31c1.09-0.45,2.22-0.82,3.33-1.23
			c0.21-0.08,0.36-0.18,0.45-0.39c0.13-0.29,0.35-0.5,0.63-0.63c0.53-0.24,1.07-0.43,1.68-0.39c0.73,0.05,1.43-0.13,2.04-0.54
			c0.88-0.59,1.86-0.83,2.89-0.96c0.05-0.01,0.09-0.01,0.14-0.01c0.51,0.01,0.81-0.19,1-0.71c0.24-0.69,0.86-1.01,1.54-1.2
			c0.36-0.1,0.73-0.19,1.09-0.29c0.17-0.04,0.39-0.13,0.36-0.29c-0.03-0.16-0.26-0.2-0.46-0.19c-0.8,0.06-1.6,0.12-2.39,0.18
			c-0.37,0.04-0.69-0.02-1-0.14c-0.27-0.1-0.43-0.3-0.45-0.59c-0.02-0.28,0.11-0.48,0.35-0.63c0.72-0.41,1.49-0.72,2.22-1.11
			c0.05-0.03,0.09-0.05,0.15-0.08c-0.23-0.15-0.45-0.3-0.67-0.43c-0.67-0.42-0.45-1.35,0.21-1.6c1.32-0.5,2.6-1.08,4-1.34
			c0.64-0.12,1.26-0.22,1.93-0.12c1,0.15,2,0.01,2.98-0.14c1.08-0.16,2.15-0.15,3.23,0.01c0.24,0.04,0.39,0.19,0.5,0.38
			c0.17,0.29,0.41,0.41,0.75,0.4c0.64-0.02,1.28-0.01,1.92-0.01c0.53,0,0.88,0.22,1.03,0.74c0.07,0.24,0.23,0.32,0.46,0.33
			C36.44,5,37.92,5.03,39.4,5.13c0.72,0.05,1.42,0.17,2.12,0.3c0.26,0.05,0.39,0.25,0.44,0.47c0.05,0.19-0.14,0.29-0.28,0.38
			c-0.55,0.37-1.19,0.44-1.83,0.48c-2.34,0.14-4.68,0.28-7.02,0.47c-0.6,0.05-1.17,0.28-1.75,0.44C31.04,7.69,31,7.71,31,7.76
			c0,0.08,0.06,0.08,0.12,0.1c0.21,0.07,0.43,0.02,0.65,0.02c1.25-0.01,2.51-0.03,3.76-0.04c1.72-0.02,3.45-0.04,5.17,0.02
			c0.43,0.01,0.87,0.03,1.3,0.06c0.57,0.04,0.76,0.2,0.9,0.76c0.11,0.42,0.1,0.41,0.52,0.38c1.1-0.07,2.19-0.22,3.3-0.21
			c1.2,0.01,2.39,0.11,3.58,0.22c0.66,0.06,1.31,0.12,1.97,0.2c0.48,0.06,0.75,0.29,0.85,0.7c0.09,0.35-0.04,0.64-0.38,0.78
			c-0.24,0.1-0.49,0.18-0.74,0.27c-0.47,0.19-0.79,0.48-0.84,1.03c-0.02,0.25-0.22,0.38-0.45,0.45c-0.5,0.14-1,0.26-1.51,0.35
			c-0.44,0.08-0.49,0.17-0.4,0.61c0.08,0.4-0.1,0.68-0.51,0.81c-1.01,0.33-2.06,0.53-3.11,0.66c-0.29,0.04-0.58,0.08-0.87,0.13
			c-0.38,0.07-0.67,0.27-0.87,0.61c-0.23,0.39-0.44,0.79-0.64,1.19c-0.18,0.38-0.09,0.54,0.34,0.55c0.75,0.02,1.51,0.03,2.26,0.07
			c1.11,0.05,2.22,0.17,3.32,0.33c0.48,0.07,0.6,0.19,0.6,0.69c0,0.32,0.12,0.39,0.41,0.4c0.98,0.03,1.96,0.08,2.94,0.11
			c0.32,0.01,0.61,0.09,0.89,0.23c0.38,0.19,0.49,0.45,0.3,0.83c-0.15,0.29-0.19,0.53,0.04,0.8c0.1,0.11,0.13,0.28,0.12,0.43
			c-0.02,0.32,0.17,0.41,0.43,0.43c0.55,0.04,1.11,0.08,1.66,0.13c0.4,0.04,0.81,0.06,1.19,0.23c0.25,0.11,0.44,0.27,0.41,0.57
			c-0.03,0.27-0.22,0.42-0.47,0.5c-1,0.32-2.01,0.4-3.04,0.21c-0.46-0.08-0.89,0.02-1.25,0.32c-1.09,0.89-2.39,1.19-3.73,1.39
			c-0.93,0.14-1.86,0.04-2.79-0.07c-0.48-0.06-0.84,0.09-1.11,0.5c-0.29,0.43-0.61,0.84-0.92,1.25c-0.15,0.21-0.13,0.27,0.13,0.3
			c0.81,0.08,1.63,0.14,2.45,0.23c1.04,0.12,2.06,0.34,3.04,0.71c0.41,0.16,0.77,0.4,1.06,0.73c0.43,0.46,0.3,1.01-0.3,1.22
			c-0.61,0.21-1.24,0.29-1.89,0.31c-0.72,0.02-1.43-0.06-2.12-0.26c-0.38-0.11-0.77-0.08-1.14,0.02c-1,0.25-2.01,0.41-3.04,0.45
			c-0.33,0.01-0.56,0.18-0.67,0.5c-0.11,0.32-0.21,0.64-0.34,0.96c-0.07,0.17-0.04,0.23,0.15,0.23c0.45,0.01,0.9,0.02,1.35,0.04
			c1.97,0.07,3.9,0.42,5.71,1.22c0.82,0.36,1.65,0.68,2.5,0.93c0.33,0.1,0.46,0.34,0.54,0.63c0.06,0.22-0.15,0.45-0.42,0.51
			c-1.41,0.29-2.83,0.38-4.27,0.2c-1.01-0.12-2.03-0.14-3.05-0.09c-0.22,0.01-0.42,0.1-0.59,0.24c-0.66,0.55-1.41,0.75-2.26,0.63
			c-0.59-0.08-1.18-0.06-1.78-0.05c-0.24,0.01-0.45,0.1-0.62,0.29c-0.3,0.35-0.63,0.68-0.92,1.04c-0.59,0.73-1.33,1.3-1.99,1.96
			c-1.08,1.07-1.71,2.41-2.27,3.8c-0.38,0.93-0.48,1.91-0.5,2.9c-0.05,1.79-0.05,3.58,0,5.37c0.02,0.75,0.15,1.5,0.24,2.25
			c0.01,0.09-0.01,0.22,0.16,0.19c1.15-0.16,2.24,0.16,3.35,0.37c1.38,0.26,2.76,0.5,4.14,0.73c0.53,0.08,1.07,0.02,1.6,0.23
			c-0.25,0.32-0.57,0.48-0.96,0.49c-0.34,0.01-0.68,0.01-1.01-0.06c-0.69-0.13-1.37-0.03-2.05,0.07c-0.71,0.11-1.42,0.12-2.13,0.02
			c-0.87-0.12-1.75,0-2.62,0.02c-1.26,0.04-2.52,0.07-3.78,0.11c-0.86,0.02-1.7,0.19-2.55,0.29c-1.13,0.13-2.27,0.19-3.41,0.04
			c-1.02-0.13-2.05-0.07-3.07,0.03c-1.34,0.13-2.68,0.21-4.03,0.3c-0.31,0.02-0.62-0.05-0.92-0.1c-0.12-0.02-0.23-0.07-0.25-0.19
			c-0.02-0.14,0.04-0.25,0.17-0.33c0.32-0.19,0.68-0.26,1.05-0.32c0.87-0.14,1.75-0.27,2.62-0.4c0.14-0.02,0.28-0.05,0.4-0.12
			c0.88-0.53,1.88-0.69,2.87-0.86c0.9-0.16,1.78-0.09,2.67-0.01c0.1,0.01,0.21,0.02,0.31,0.01c0.6-0.03,0.79-0.17,0.97-0.75
			c0.14-0.44,0.3-0.87,0.48-1.29c0.06-0.14,0.05-0.2-0.12-0.21c-0.23,0-0.45-0.03-0.68-0.03c-0.3,0.01-0.39,0.12-0.36,0.41
			c0.03,0.23,0.1,0.46,0.13,0.69c0.04,0.28-0.05,0.38-0.33,0.39c-0.32,0.01-0.64-0.01-0.96-0.05c-0.3-0.03-0.46-0.19-0.52-0.47
			c-0.04-0.18-0.06-0.37-0.09-0.56c-0.04-0.27-0.2-0.42-0.47-0.44c-0.83-0.06-1.65-0.11-2.48-0.17c-0.01,0-0.02,0-0.03,0
			c-0.17-0.01-0.35,0.09-0.36,0.21c-0.02,0.14,0.16,0.23,0.31,0.26c0.27,0.04,0.54,0.03,0.82-0.01c0.66-0.08,1.28,0,1.84,0.42
			c-0.42,0.18-0.85,0.18-1.27,0.24c-0.37,0.05-0.75,0.09-1.12,0.14c-0.19,0.03-0.36,0.07-0.4,0.32c-0.03,0.18-0.2,0.23-0.38,0.22
			c-0.52-0.02-1.03-0.04-1.55-0.06c-1.03-0.03-2.04,0.16-3.07,0.25s-2.06,0.17-3.1,0.2c-0.6,0.02-1.18,0.11-1.77,0.2
			c-0.18,0.03-0.35,0.01-0.54-0.05c0.1-0.19,0.25-0.28,0.44-0.32c0.31-0.05,0.61-0.1,0.91-0.17c0.16-0.04,0.39-0.08,0.34-0.33
			c-0.04-0.23-0.24-0.27-0.44-0.25c-0.98,0.06-1.96,0.11-2.94,0.06c-0.04,0-0.08,0-0.11,0C8.43,53.34,8.43,53.34,8.49,54
			c0,0.04,0,0.08,0.01,0.11c0.09,0.85,0.11,0.7-0.66,0.85c-0.29,0.06-0.58,0.09-0.87,0.11c-0.39,0.03-0.59-0.17-0.61-0.56
			c-0.01-0.12-0.02-0.24-0.04-0.36c-0.04-0.28-0.2-0.48-0.46-0.6c-0.29-0.14-0.33-0.36-0.07-0.52c0.45-0.29,0.46-0.69,0.35-1.14
			c-0.08-0.31-0.22-0.39-0.54-0.33c-0.15,0.03-0.3,0.06-0.45,0.08c-0.29,0.03-0.54-0.06-0.75-0.26c-0.1-0.09-0.26-0.2-0.21-0.34
			c0.06-0.17,0.2-0.29,0.4-0.32c0.31-0.05,0.62-0.02,0.93-0.03s0.39-0.08,0.37-0.38C5.88,49.97,6,49.82,6.32,49.82
			c0.39-0.01,0.77,0,1.16,0.01c0.31,0.01,0.54,0.15,0.63,0.47c0.06,0.23,0.23,0.31,0.45,0.31c1.05,0.02,2.11,0.04,3.16,0.07
			c0.23,0.01,0.32-0.09,0.34-0.31c0.02-0.31,0.13-0.42,0.43-0.44c0.31-0.01,0.62-0.01,0.93,0c0.3,0.01,0.52,0.14,0.61,0.45
			c0.05,0.19,0.18,0.29,0.37,0.3c1.23,0.08,2.46,0.14,3.69,0.16c0.21,0,0.34-0.15,0.46-0.3c0.1-0.13,0.2-0.17,0.35-0.18
			c0.4-0.03,0.79,0.01,1.19,0.02c0.26,0.01,0.48,0.14,0.57,0.39c0.08,0.2,0.23,0.26,0.42,0.28c0.89,0.08,1.78,0.15,2.67,0.23
			c0.24,0.02,0.44-0.08,0.63-0.2c0.43-0.28,0.88-0.21,1.34-0.11c0.17,0.04,0.27,0.2,0.31,0.37c0.05,0.23,0.19,0.31,0.41,0.29
			c0.29-0.03,0.58-0.01,0.87,0c0.28,0.01,0.43-0.13,0.43-0.41c0.01-3.06-0.35-6.07-1.39-8.96c-0.47-1.32-1.19-2.53-1.82-3.78
			c-0.82-1.62-1.58-3.26-2.08-5.02c-0.11-0.4-0.25-0.46-0.67-0.35c-1.58,0.43-3.15,0.9-4.75,1.24c-0.99,0.21-1.98,0.37-2.99,0.14
			c-0.2-0.05-0.39-0.12-0.56-0.25c-0.39-0.3-0.39-0.71,0.03-0.97c0.33-0.21,0.69-0.39,1.04-0.57c1.17-0.6,2.33-1.22,3.57-1.67
			c0.03-0.05,0.08-0.06,0.13-0.08c-0.02-0.01-0.03,0.01-0.04,0.01C18.14,30.98,18.06,30.94,18,30.98z"/>
		<path class="st1" d="M34.79,51.69c0.12,0.01,0.3,0.03,0.47,0.06c0.23,0.04,0.38,0.16,0.4,0.4c0.01,0.17,0.09,0.22,0.25,0.22
			c0.38,0.01,0.75,0.05,1.13,0.07c0.31,0.02,0.59-0.05,0.86-0.21c0.19-0.12,0.41-0.18,0.64-0.19c0.66-0.03,1.09,0.53,0.89,1.16
			c-0.04,0.11-0.12,0.16-0.21,0.21c-0.28,0.14-0.58,0.17-0.87,0.07c-0.63-0.23-1.3-0.27-1.94-0.49c-0.41-0.14-0.8-0.01-1.17,0.16
			c-0.56,0.25-0.9,0.17-1.29-0.3c-0.02-0.02-0.04-0.04-0.05-0.07c-0.11-0.18-0.44-0.38-0.34-0.49c0.24-0.27,0.47-0.64,0.93-0.61
			C34.56,51.69,34.65,51.69,34.79,51.69z"/>
		<path class="st1" d="M42.18,53.6c-0.1-0.01-0.2-0.03-0.3-0.03c-0.19,0-0.39,0.04-0.42-0.24c-0.04-0.32,0.09-0.59,0.34-0.67
			c0.13-0.04,0.28-0.06,0.42-0.06c0.44,0.01,0.66,0.37,0.51,0.78C42.66,53.55,42.59,53.58,42.18,53.6z"/>
		<path class="st2" d="M18,30.98c0.07-0.06,0.15-0.05,0.23-0.06c0.06-0.02,0.07,0.01,0.05,0.06c-0.06,0.02-0.11,0.03-0.17,0.05
			C18.08,31.01,18.04,30.99,18,30.98z"/>
		<path class="st0" d="M27.96,24.85c-0.28,0.02-0.58,0.05-0.88,0.07c-0.39,0.03-0.57-0.09-0.7-0.47c-0.07-0.21-0.15-0.43-0.21-0.64
			c-0.08-0.3-0.02-0.4,0.28-0.47c0.73-0.16,1.45-0.3,2.18-0.44c0.17-0.03,0.32-0.09,0.45-0.21c0.34-0.3,0.73-0.43,1.18-0.47
			c0.49-0.04,0.97-0.1,1.46-0.15c0.23-0.02,0.42,0.02,0.6,0.18c0.4,0.36,0.92,0.45,1.42,0.58c0.84,0.21,0.87,0.26,0.52,1.05
			c-0.17,0.39-0.33,0.78-0.49,1.17c-0.11,0.29-0.32,0.41-0.62,0.45c-1.29,0.16-2.59,0.23-3.85,0.56c-0.17,0.04-0.2-0.02-0.16-0.17
			c0.03-0.11,0.05-0.22,0.05-0.33c0.02-0.41-0.23-0.69-0.63-0.71C28.37,24.84,28.18,24.85,27.96,24.85z"/>
		<path class="st0" d="M25.58,18.15c0-0.19-0.01-0.38,0-0.57c0.02-0.37,0.19-0.51,0.56-0.43c0.42,0.09,0.84,0.21,1.26,0.31
			c0.65,0.14,1.3,0,1.94-0.08c2.2-0.28,4.4-0.58,6.61-0.88c0.21-0.03,0.41-0.07,0.61-0.09c0.22-0.02,0.35,0.06,0.36,0.31
			c0.02,0.87-0.07,0.97-0.94,1.09c-1.27,0.16-2.54,0.35-3.8,0.52c-0.31,0.04-0.62,0.1-0.93,0.08c-1.44-0.11-2.81,0.36-4.22,0.49
			c-0.36,0.03-0.71,0.09-1.07,0.13c-0.25,0.03-0.38-0.07-0.37-0.33C25.59,18.53,25.59,18.34,25.58,18.15
			C25.59,18.15,25.58,18.15,25.58,18.15z"/>
		<path class="st0" d="M27.43,36.72c-0.01,0.69,0.08,1.49-0.03,2.29c-0.01,0.08,0.01,0.19-0.09,0.21c-0.11,0.03-0.13-0.09-0.18-0.15
			c-0.64-0.78-1.07-1.67-1.45-2.6c-0.48-1.16-0.93-2.34-1.27-3.55c-0.1-0.35-0.05-0.49,0.28-0.62c0.63-0.26,1.25-0.51,1.88-0.75
			c0.4-0.16,0.53-0.08,0.56,0.36C27.26,33.47,27.35,35.04,27.43,36.72z"/>
		<path class="st0" d="M43.29,24.62c-0.46,0.68-0.91,1.34-1.36,2c-0.16,0.24-0.4,0.37-0.69,0.37c-0.32,0-0.64-0.03-0.96,0
			c-0.15,0.02-0.18-0.04-0.15-0.18c0.05-0.2,0.1-0.4,0.13-0.6c0.07-0.51-0.17-0.84-0.67-0.94c-0.16-0.03-0.32-0.04-0.47-0.07
			c-0.19-0.05-0.27-0.16-0.16-0.35c0.36-0.7,0.68-0.86,1.46-0.71c0.76,0.15,1.53,0.21,2.29,0.31C42.91,24.48,43.1,24.53,43.29,24.62
			z"/>
		<path class="st0" d="M23.48,18.54c0.01,0.99,0.02,0.81-0.8,0.98c-0.47,0.1-0.95,0.14-1.42,0.21c-0.25,0.04-0.39-0.06-0.44-0.31
			c-0.05-0.32-0.12-0.65-0.11-0.98c0-0.22,0.1-0.37,0.31-0.41c0.71-0.16,1.43-0.3,2.17-0.34c0.2-0.01,0.28,0.1,0.29,0.27
			C23.49,18.15,23.48,18.34,23.48,18.54z"/>
		<path class="st0" d="M39.24,30.65c-0.21,0.49-0.4,0.94-0.6,1.39c-0.05,0.13-0.16,0.18-0.29,0.19c-0.84,0.07-1.64-0.16-2.44-0.34
			c-0.12-0.03-0.09-0.09-0.05-0.17c0.14-0.3,0.28-0.59,0.42-0.89c0.06-0.14,0.17-0.18,0.32-0.18
			C37.46,30.65,38.32,30.65,39.24,30.65z"/>
		<path class="st0" d="M30.31,37.83c0-0.65,0-1.3,0-1.95c0-0.46,0.1-0.54,0.56-0.51c0.86,0.07,0.87,0.08,0.65,0.9
			c-0.28,1.04-0.56,2.08-0.84,3.13c-0.05,0.18-0.13,0.35-0.22,0.51c-0.03,0.05-0.04,0.12-0.11,0.11c-0.08-0.02-0.07-0.1-0.07-0.16
			c0-0.45,0-0.9,0-1.36c0-0.23,0-0.45,0-0.68C30.29,37.83,30.3,37.83,30.31,37.83z"/>
		<path class="st0" d="M29.88,31.76c0-0.26,0.12-0.42,0.38-0.45c0.73-0.08,1.45-0.23,2.18-0.26c0.14-0.01,0.15,0.04,0.14,0.16
			c-0.05,0.74-0.24,1-0.93,1.24c-0.36,0.13-0.72,0.26-1.09,0.38c-0.35,0.12-0.49,0.03-0.55-0.32
			C29.96,32.26,29.92,32.01,29.88,31.76z"/>
		<path class="st0" d="M16.41,51.7c0.59,0,1.18-0.01,1.78,0c0.31,0,0.49,0.17,0.58,0.48c0.03,0.09-0.01,0.12-0.07,0.15
			c-0.13,0.08-0.26,0.14-0.42,0.14c-1.22,0.03-2.44-0.11-3.66-0.05c-0.33,0.02-0.29-0.26-0.31-0.47c-0.02-0.22,0.09-0.33,0.32-0.32
			c0.59,0,1.19,0,1.78,0C16.41,51.66,16.41,51.68,16.41,51.7z"/>
		<path class="st0" d="M10.79,51.59c0.38,0.09,0.79,0.02,1.2,0.05c0.25,0.01,0.37,0.17,0.37,0.44c0,0.25-0.15,0.29-0.35,0.3
			c-1.11,0.04-2.22,0.11-3.33,0.19c-0.27,0.02-0.39-0.1-0.41-0.38c-0.02-0.29,0.06-0.42,0.34-0.44
			C9.33,51.69,10.04,51.64,10.79,51.59z"/>
		<path class="st0" d="M39.74,17.46c-0.57-0.01-0.58-0.02-0.52-0.55c0.08-0.67,0.44-1,1.15-1.09c0.16-0.02,0.38-0.13,0.47,0.01
			s-0.03,0.34-0.11,0.5c-0.14,0.28-0.29,0.55-0.44,0.82C40.17,17.38,39.97,17.48,39.74,17.46z"/>
		<path class="st0" d="M23.53,24.99c-0.07-0.01-0.16,0.01-0.22-0.02c-0.28-0.13-0.57-0.18-0.88-0.15c-0.1,0.01-0.28,0.02-0.28-0.15
			c0.01-0.18-0.04-0.42,0.2-0.51c0.41-0.16,0.84-0.26,1.28-0.32c0.11-0.01,0.19,0.03,0.24,0.11c0.07,0.09,0.13,0.18,0.17,0.29
			C24.27,24.76,24.1,25,23.53,24.99z"/>
		<path class="st0" d="M18.94,53.35c-0.11,0.19-0.26,0.19-0.41,0.2c-1.03,0.06-2.06,0.13-3.09,0.2c-0.13,0.01-0.26,0.04-0.39,0.05
			c-0.14,0.02-0.26-0.01-0.33-0.15c-0.12-0.22-0.07-0.31,0.18-0.32c1.08-0.06,2.16-0.13,3.24-0.06
			C18.39,53.29,18.64,53.32,18.94,53.35z"/>
		<path class="st0" d="M36.45,25.22c-0.46-0.01-0.5-0.07-0.35-0.48c0.09-0.24,0.17-0.49,0.28-0.73c0.16-0.36,0.7-0.47,1.01-0.22
			c0.11,0.09,0.11,0.2,0.07,0.31c-0.12,0.32-0.27,0.64-0.48,0.91C36.83,25.18,36.65,25.25,36.45,25.22z"/>
		<path class="st0" d="M35.28,36.52c-0.02-0.27-0.05-0.55-0.02-0.83c0.03-0.24,0.16-0.38,0.4-0.39c0.28-0.02,0.55,0.03,0.75,0.09
			c-0.34,0.38-0.69,0.78-1.04,1.18C35.33,36.55,35.31,36.53,35.28,36.52z"/>
		<path class="st3" d="M18.28,30.98c-0.02-0.02-0.04-0.04-0.05-0.06c0.06-0.05,0.13-0.07,0.21-0.04
			C18.4,30.95,18.34,30.96,18.28,30.98z"/>
	</g>
</g>
</svg>
